<svg width="299" height="60" viewBox="0 0 299 60" fill="none" xmlns="http://www.w3.org/2000/svg">
<path d="M16.432 47.64C24.432 47.64 30.256 43.096 31.92 35.544H25.52C24.432 39.96 21.104 42.584 16.304 42.584C10.608 42.584 7.152 38.552 6.64 31.64H31.92C33.072 20.632 26.352 12.44 16.24 12.44C6.896 12.44 0.0480001 19.8 0.0480001 29.848C0.0480001 40.536 6.64 47.64 16.432 47.64ZM16.112 17.304C21.36 17.304 24.752 21.08 25.072 27.352H6.704C7.408 21.016 10.928 17.304 16.112 17.304ZM46.6645 5.208C46.6645 2.712 44.7445 0.919998 41.9925 0.919998C39.2405 0.919998 37.2565 2.712 37.2565 5.208C37.2565 7.64 39.2405 9.496 41.9925 9.496C44.7445 9.496 46.6645 7.64 46.6645 5.208ZM45.2565 47V13.08H38.7925V47H45.2565ZM86.614 30.04C86.614 19.8 80.662 12.44 71.638 12.44C66.838 12.44 62.678 14.936 60.246 19.288V13.08H54.23V59.352H60.694V41.24C63.126 45.336 67.03 47.64 71.638 47.64C80.726 47.64 86.614 40.28 86.614 30.04ZM79.894 30.04C79.894 37.656 75.862 41.88 70.294 41.88C64.854 41.88 60.694 37.528 60.694 30.04C60.694 22.424 64.918 18.136 70.294 18.136C75.862 18.136 79.894 22.424 79.894 30.04ZM101.04 5.208C101.04 2.712 99.1195 0.919998 96.3675 0.919998C93.6155 0.919998 91.6315 2.712 91.6315 5.208C91.6315 7.64 93.6155 9.496 96.3675 9.496C99.1195 9.496 101.04 7.64 101.04 5.208ZM99.6315 47V13.08H93.1675V47H99.6315ZM152.11 36.888C152.11 32.024 148.91 29.08 142.19 27.864L136.43 26.776C132.334 26.008 130.606 24.728 130.606 21.976C130.606 19.032 133.358 17.304 137.454 17.304C141.998 17.304 145.006 19.672 145.39 23.768H151.598C151.022 16.792 145.518 12.44 137.39 12.44C129.518 12.44 124.334 16.6 124.334 22.552C124.334 27.672 127.854 30.872 134.126 32.088L139.63 33.112C143.854 33.944 145.582 35.16 145.582 37.976C145.582 41.176 142.574 42.776 138.03 42.776C132.846 42.776 129.454 40.152 129.198 35.928H122.99C123.63 43.224 128.942 47.64 137.902 47.64C146.926 47.64 152.11 43.544 152.11 36.888ZM191.552 30.04C191.552 19.8 185.6 12.44 176.576 12.44C171.776 12.44 167.616 14.936 165.184 19.288V13.08H159.168V59.352H165.632V41.24C168.064 45.336 171.968 47.64 176.576 47.64C185.664 47.64 191.552 40.28 191.552 30.04ZM184.832 30.04C184.832 37.656 180.8 41.88 175.232 41.88C169.792 41.88 165.632 37.528 165.632 30.04C165.632 22.424 169.856 18.136 175.232 18.136C180.8 18.136 184.832 22.424 184.832 30.04ZM218.649 47H224.025V25.24C224.025 17.176 219.161 12.44 210.777 12.44C202.841 12.44 197.401 17.496 197.081 25.112H202.969C203.161 20.376 206.041 17.56 210.777 17.56C215.257 17.56 217.881 20.312 217.881 25.176V27.672C215.129 27.352 213.529 27.288 211.545 27.288C201.433 27.288 196.121 30.744 196.121 37.4C196.121 43.608 200.729 47.64 207.769 47.64C212.761 47.64 216.537 45.528 218.649 41.752V47ZM202.265 37.208C202.265 33.24 205.465 31.32 211.929 31.32C213.593 31.32 215.385 31.384 217.881 31.704V34.456C217.881 39.64 214.489 43.032 209.049 43.032C204.889 43.032 202.265 40.728 202.265 37.208ZM246.044 47.704C254.556 47.704 260.572 42.2 261.724 33.24H255.004C254.236 38.744 250.908 41.944 246.108 41.944C240.54 41.944 236.892 37.272 236.892 30.04C236.892 22.872 240.54 18.136 246.108 18.136C250.844 18.136 254.236 21.4 254.94 26.84H261.724C260.507 18.008 254.428 12.44 246.044 12.44C236.892 12.44 230.236 19.8 230.236 30.04C230.236 40.408 236.764 47.704 246.044 47.704ZM281.87 47.64C289.87 47.64 295.694 43.096 297.358 35.544H290.958C289.87 39.96 286.542 42.584 281.742 42.584C276.046 42.584 272.59 38.552 272.078 31.64H297.358C298.51 20.632 291.79 12.44 281.678 12.44C272.334 12.44 265.486 19.8 265.486 29.848C265.486 40.536 272.078 47.64 281.87 47.64ZM281.55 17.304C286.798 17.304 290.19 21.08 290.51 27.352H272.142C272.845 21.016 276.366 17.304 281.55 17.304Z" fill="white"/>
<path d="M117.373 42.392C117.373 39.384 115.389 37.336 112.445 37.336C109.565 37.336 107.517 39.384 107.517 42.392C107.517 45.272 109.565 47.32 112.445 47.32C115.389 47.32 117.373 45.272 117.373 42.392Z" fill="#EB5757"/>
</svg>
